<?xml version="1.0" encoding="UTF-8" standalone="no"?>
<svg
   class="img-fluid"
   id="outputsvg"
   viewBox="0 0 12820 5360"
   version="1.1"
   sodipodi:docname="aeroAlpesLogoSloganPaths.svg"
   inkscape:version="1.2.1 (9c6d41e, 2022-07-14)"
   width="12820"
   height="5360"
   inkscape:export-filename="aeroAlpesLogoSlogan.png"
   inkscape:export-xdpi="96"
   inkscape:export-ydpi="96"
   xmlns:inkscape="http://www.inkscape.org/namespaces/inkscape"
   xmlns:sodipodi="http://sodipodi.sourceforge.net/DTD/sodipodi-0.dtd"
   xmlns="http://www.w3.org/2000/svg"
   xmlns:svg="http://www.w3.org/2000/svg">
  <defs
     id="defs479">
    <rect
       x="5632.5425"
       y="1816.9492"
       width="4474.2373"
       height="794.91522"
       id="rect2632" />
    <rect
       x="6313.8984"
       y="1226.4407"
       width="3225.0847"
       height="1589.8304"
       id="rect2574" />
    <rect
       x="6223.0508"
       y="772.20337"
       width="4451.5254"
       height="2293.8982"
       id="rect2518" />
    <rect
       x="6972.5425"
       y="454.2373"
       width="4110.8477"
       height="3202.3728"
       id="rect2506" />
    <rect
       x="7790.1694"
       y="2021.356"
       width="3315.9321"
       height="2543.7288"
       id="rect1913" />
    <rect
       x="5564.4067"
       y="408.81357"
       width="6495.5933"
       height="1748.8136"
       id="rect1803" />
    <rect
       x="10129.492"
       y="1498.9832"
       width="249.83051"
       height="454.2373"
       id="rect1797" />
    <rect
       x="6313.8984"
       y="635.93219"
       width="5405.4238"
       height="1385.4237"
       id="rect1791" />
    <rect
       x="5110.1694"
       y="1408.1356"
       width="7744.7456"
       height="953.89832"
       id="rect1785" />
    <rect
       x="5110.1694"
       y="1453.5593"
       width="7404.0679"
       height="953.89832"
       id="rect1779" />
    <rect
       x="4860.3389"
       y="1135.5931"
       width="8630.5088"
       height="1203.7288"
       id="rect1773" />
  </defs>
  <sodipodi:namedview
     id="namedview477"
     pagecolor="#ffffff"
     bordercolor="#000000"
     borderopacity="0.25"
     inkscape:showpageshadow="2"
     inkscape:pageopacity="0.0"
     inkscape:pagecheckerboard="0"
     inkscape:deskcolor="#d1d1d1"
     showgrid="false"
     inkscape:zoom="0.044029851"
     inkscape:cx="5462.2034"
     inkscape:cy="2293.8983"
     inkscape:window-width="1512"
     inkscape:window-height="846"
     inkscape:window-x="0"
     inkscape:window-y="25"
     inkscape:window-maximized="0"
     inkscape:current-layer="text3471" />
  <g
     id="l5TL6f2wIaCFCGJJVMGVk2H"
     fill="#101842">
    <g
       id="g16">
      <path
         id="pPo4RpStJ"
         d="m 2383,4517 c -88,-199 -206,-453 -215,-464 -5,-7 -35,-17 -66,-24 -182,-37 -429,-153 -597,-280 -63,-47 -81,-48 -200,-10 -65,22 -91,26 -93,17 -1,-7 11,-51 28,-98 16,-48 30,-95 30,-105 0,-10 -34,-68 -76,-128 -155,-222 -256,-491 -277,-732 l -4,-53 h 53 c 29,0 55,4 58,9 3,5 12,51 20,102 22,149 62,274 131,414 77,156 161,270 289,392 245,235 528,358 889,388 l 77,7 v 319 c 0,175 -3,319 -7,319 -5,-1 -22,-33 -40,-73 z m -36,-412 c -3,-7 -16,-14 -29,-17 l -24,-4 26,48 25,48 3,-31 c 2,-17 1,-37 -1,-44 z" />
      <path
         id="p3TtArsIk"
         d="m 2546,4010 c -8,-62 -4,-70 38,-70 95,0 328,-66 451,-127 161,-81 228,-128 352,-247 150,-144 221,-237 295,-382 96,-187 131,-310 151,-519 l 12,-130 105,-3 c 58,-2 196,0 308,3 241,9 251,16 107,78 -181,78 -400,180 -416,193 -8,8 -23,49 -33,91 -41,173 -130,363 -251,538 -36,51 -65,103 -65,116 0,13 14,66 31,117 17,51 29,96 26,98 -3,3 -44,-9 -92,-25 -48,-17 -100,-31 -116,-31 -20,0 -65,24 -141,77 -126,85 -291,168 -415,207 -94,29 -267,66 -311,66 -28,0 -30,-3 -36,-50 z m 1491,-1360 38,-20 h -43 c -23,0 -42,2 -42,4 0,2 -3,11 -6,20 -8,21 8,20 53,-4 z" />
      <path
         id="pkeijH4mA"
         d="m 2011,3375 c 14,-14 203,-145 401,-280 152,-103 272,-233 255,-278 -3,-8 -45,-39 -94,-68 -48,-29 -106,-69 -129,-88 -22,-20 -94,-84 -160,-142 -65,-58 -135,-120 -154,-136 l -35,-31 3,42 c 2,35 -7,56 -61,145 -68,115 -53,104 -207,147 -36,10 -78,23 -94,30 l -28,11 36,41 c 31,34 37,47 34,79 -2,29 -7,38 -23,40 -11,1 -69,5 -128,8 -99,6 -110,9 -138,35 -23,20 -59,34 -145,56 -137,34 -130,38 -164,-87 -29,-110 -40,-181 -40,-269 v -75 l 112,-113 c 119,-121 138,-134 214,-153 27,-7 54,-15 59,-19 6,-4 26,-11 45,-15 19,-4 40,-11 45,-15 6,-4 26,-11 45,-15 19,-4 40,-11 45,-15 6,-4 26,-11 45,-15 19,-4 40,-11 45,-15 23,-17 233,-80 268,-80 45,0 32,-11 560,462 l 120,108 21,-31 c 16,-23 67,-53 199,-120 98,-49 189,-89 202,-89 13,0 57,15 97,33 40,19 92,42 116,52 23,10 42,22 42,27 0,4 8,8 18,8 9,1 64,23 122,50 74,35 113,60 134,85 l 28,36 -15,86 c -9,47 -20,90 -24,94 -5,5 -28,-16 -52,-46 -42,-53 -61,-67 -61,-45 0,6 -7,10 -15,10 -8,0 -15,-6 -15,-14 0,-8 -22,-22 -52,-32 -29,-9 -73,-28 -98,-41 -45,-24 -45,-24 23,39 60,56 67,67 67,101 0,26 -4,37 -15,37 -7,0 -18,6 -22,14 -4,7 -34,30 -65,50 -32,20 -58,41 -58,46 0,6 -5,10 -11,10 -6,0 -28,14 -49,30 l -38,30 h -173 c -167,1 -176,2 -214,25 -22,14 -47,28 -55,32 -8,3 -34,19 -57,35 -23,15 -51,28 -62,28 -12,0 -21,6 -21,13 0,12 -68,47 -93,47 -6,0 -41,9 -77,21 -35,11 -123,28 -195,39 -71,11 -152,26 -180,34 -91,26 -100,27 -84,11 z" />
      <path
         id="prRnGrht0"
         d="m 640,2540 c -269,-5 -274,-5 -240,-22 60,-30 474,-215 496,-222 27,-8 38,-32 64,-136 46,-182 159,-412 272,-554 27,-33 48,-63 48,-67 0,-4 -13,-42 -29,-84 -16,-42 -33,-90 -36,-107 -7,-30 -7,-31 28,-24 19,4 62,18 96,31 81,33 101,32 158,-14 216,-170 562,-310 771,-311 h 63 l -3,52 -3,51 -129,24 c -219,40 -392,111 -571,234 -84,57 -264,236 -339,335 -139,185 -256,525 -256,743 v 81 l -57,-2 c -32,-1 -182,-5 -333,-8 z m 241,-112 c 8,-29 -4,-39 -15,-13 -3,10 -19,15 -44,15 -21,0 -47,7 -58,15 -17,14 -14,15 45,13 61,-3 65,-4 72,-30 z" />
      <path
         id="pGQk4dYAf"
         d="m 3845,2421 c -3,-6 -14,-58 -25,-118 -33,-184 -121,-409 -210,-538 -98,-143 -257,-302 -392,-394 -62,-41 -224,-122 -313,-156 -86,-32 -220,-61 -365,-77 l -110,-12 V 796 c 0,-205 4,-326 9,-320 6,5 52,103 104,219 120,267 153,332 174,344 10,5 45,14 78,21 164,33 474,187 593,294 l 40,36 113,-39 c 62,-22 115,-38 117,-36 2,2 -10,46 -27,97 -17,51 -31,105 -31,119 0,16 18,51 43,85 109,148 181,284 233,439 38,114 74,277 74,336 v 39 h -49 c -28,0 -52,-4 -56,-9 z M 2548,950 c -11,-22 -22,-40 -24,-40 -2,0 -4,18 -4,40 0,35 3,40 24,40 h 23 z" />
    </g>
  </g>
  <g
     id="l7iOb3mV8H5Mky3RDDU8r9o"
     fill="#3c4265">
    <g
       id="g226">
      <path
         id="pbmlCjAnP"
         d="m 2410,4574 c -6,-14 -15,-34 -20,-45 -6,-10 -8,-19 -6,-19 3,0 12,12 20,28 14,24 15,-1 16,-274 v -301 l -92,-6 c -181,-13 -409,-78 -552,-158 -11,-6 -40,-23 -65,-36 -53,-29 -218,-152 -246,-182 -34,-38 -5,-22 62,35 231,196 497,302 826,329 l 77,7 v 324 c 0,178 -2,324 -5,324 -3,0 -10,-12 -15,-26 z" />
      <path
         id="pQ61RCcJd"
         d="m 2367,4488 c -37,-93 -46,-118 -43,-118 5,0 42,78 51,108 7,23 1,31 -8,10 z" />
      <path
         id="p19i5311Bs"
         d="m 2297,4328 c -3,-7 -12,-30 -21,-50 -9,-21 -14,-38 -12,-38 7,0 48,91 43,96 -2,3 -7,-1 -10,-8 z" />
      <path
         id="p1GQjwlQw0"
         d="m 2362,4308 c -5,-7 -13,-23 -16,-35 -6,-19 -3,-23 13,-23 17,0 21,6 21,35 0,38 -2,41 -18,23 z" />
      <path
         id="p0Cxwyy9Q"
         d="m 2283,4093 c -36,-7 -30,-40 8,-48 18,-4 34,-3 38,3 3,5 15,11 26,13 11,3 21,12 23,22 3,14 -3,17 -35,16 -21,-1 -48,-4 -60,-6 z" />
      <path
         id="p1HNh5uuHK"
         d="m 2176,4066 c -10,-16 -31,-28 -58,-34 -37,-9 -39,-10 -13,-11 40,-1 76,19 86,47 11,29 5,28 -15,-2 z" />
      <path
         id="p12IsgraFO"
         d="m 2660,4040 c 8,-5 26,-9 40,-9 23,0 23,1 5,9 -11,5 -29,9 -40,9 -17,1 -17,-1 -5,-9 z" />
      <path
         id="pztU5JOkj"
         d="m 2810,4010 c 8,-5 24,-10 34,-10 26,0 18,6 -19,14 -22,5 -26,4 -15,-4 z" />
      <path
         id="p1GIVtXREE"
         d="m 2543,3970 c 2,-22 8,-26 57,-31 30,-4 73,-9 95,-12 l 40,-6 -40,13 c -22,8 -62,15 -88,15 -40,1 -49,5 -57,24 -10,22 -10,22 -7,-3 z" />
      <path
         id="p44MTFts9"
         d="m 1873,3960 c -34,-14 -28,-21 7,-9 17,6 30,13 30,15 0,6 -12,4 -37,-6 z" />
      <path
         id="pfNP3t3zZ"
         d="m 2800,3901 c 36,-10 90,-27 120,-38 30,-12 64,-24 75,-28 l 20,-7 -20,14 c -29,22 -198,78 -232,77 -18,0 -6,-6 37,-18 z" />
      <path
         id="p1E6aQiiyX"
         d="m 3020,3826 c 0,-2 42,-27 94,-55 52,-28 114,-65 137,-84 24,-18 51,-37 59,-42 13,-7 13,-6 2,7 -17,22 -148,109 -204,136 -26,13 -50,27 -53,33 -6,9 -35,13 -35,5 z" />
      <path
         id="p19Hq2E2Pr"
         d="m 1545,3779 c -59,-45 -67,-57 -13,-20 26,17 50,36 53,41 9,15 3,12 -40,-21 z" />
      <path
         id="pjPjVMJpl"
         d="m 1210,3760 c 0,-8 14,-57 32,-108 28,-82 30,-97 20,-125 l -12,-31 21,20 21,21 -41,119 c -22,65 -40,112 -41,104 z" />
      <path
         id="pcYTOoCDI"
         d="m 3334,3761 c 10,-16 96,-73 96,-64 0,4 -23,23 -51,41 -28,19 -48,29 -45,23 z" />
      <path
         id="p1BdMywJSU"
         d="m 3620,3759 c -12,-8 -10,-9 8,-4 21,6 22,4 17,-22 -4,-23 -4,-24 4,-8 20,42 6,58 -29,34 z" />
      <path
         id="p1ok1VAK1"
         d="m 1295,3735 c 17,-8 37,-14 45,-14 8,0 -1,7 -20,14 -46,18 -64,17 -25,0 z" />
      <path
         id="p15vqiDv8b"
         d="m 1360,3712 c 0,-5 14,-12 30,-14 17,-3 30,-1 30,4 0,4 -6,8 -14,8 -8,0 -21,3 -30,6 -9,3 -16,2 -16,-4 z" />
      <path
         id="pNpC8cmaQ"
         d="m 1306,3671 c -3,-5 0,-26 7,-48 l 12,-40 26,28 c 15,15 24,31 20,36 -10,14 -60,33 -65,24 z" />
      <path
         id="pDS6fqMRa"
         d="m 3518,3662 c -30,-18 -30,-46 1,-69 24,-19 28,-16 33,20 3,17 7,38 9,46 6,20 -12,21 -43,3 z" />
      <path
         id="pLKt1EzcX"
         d="m 3441,3513 c 131,-135 186,-214 264,-374 30,-63 55,-107 55,-99 0,20 -100,224 -111,228 -5,2 -9,8 -9,13 0,9 -38,68 -51,79 -3,3 -8,10 -10,16 -13,36 -201,236 -233,248 -11,3 32,-46 95,-111 z" />
      <path
         id="p11bl3NiBv"
         d="m 1390,3505 c -18,-19 -31,-37 -29,-40 3,-2 21,11 39,30 18,19 31,37 29,40 -3,2 -21,-11 -39,-30 z" />
      <path
         id="p3cpEJnI8"
         d="m 3631,3470 c 29,-45 29,-45 29,-34 0,5 -12,23 -26,39 l -26,30 z" />
      <path
         id="p5x4XmvGh"
         d="m 1215,3454 c -15,-19 -25,-37 -24,-39 2,-2 17,14 32,36 35,49 29,52 -8,3 z" />
      <path
         id="puy1cqPVu"
         d="m 1322,3423 c -31,-39 -27,-51 4,-13 15,17 24,33 22,35 -2,3 -14,-7 -26,-22 z" />
      <path
         id="pYuSuI4Kv"
         d="m 2045,3352 c 10,-11 183,-132 367,-257 102,-69 168,-128 223,-195 24,-30 25,-31 10,-5 -44,74 -64,96 -130,140 -117,80 -130,90 -133,98 -2,4 -8,7 -13,7 -9,0 -65,36 -79,50 -3,3 -12,10 -21,15 -9,6 -52,35 -95,65 -91,63 -143,97 -129,82 z" />
      <path
         id="pNyHRTXjy"
         d="m 2105,3350 c 3,-5 21,-10 38,-9 31,1 31,1 7,9 -36,11 -52,11 -45,0 z" />
      <path
         id="pdcxeudy8"
         d="m 1105,3288 c -15,-29 -23,-48 -16,-42 13,12 52,86 47,91 -1,2 -15,-21 -31,-49 z" />
      <path
         id="p5BN2m8n2"
         d="m 2550,3241 c 0,-5 14,-15 30,-23 17,-7 30,-21 30,-30 0,-13 8,-17 30,-15 24,2 30,7 30,24 0,16 -8,25 -25,29 -14,3 -25,10 -25,15 0,5 -16,9 -35,9 -19,0 -35,-4 -35,-9 z" />
      <path
         id="poGcG5wPF"
         d="m 1187,3218 c -9,-31 -2,-33 11,-3 6,14 8,25 3,25 -5,0 -11,-10 -14,-22 z" />
      <path
         id="piOZKpavL"
         d="m 1067,3218 c -3,-7 -12,-30 -21,-50 -9,-21 -14,-38 -12,-38 7,0 48,91 43,96 -2,3 -7,-1 -10,-8 z" />
      <path
         id="p3XtDu8Qt"
         d="m 3801,3195 c 0,-5 11,-30 24,-55 13,-25 24,-40 24,-35 0,6 -11,30 -24,55 -13,25 -24,41 -24,35 z" />
      <path
         id="p08b9QXYp"
         d="m 1157,3158 c -9,-31 -2,-33 11,-3 6,14 8,25 3,25 -5,0 -11,-10 -14,-22 z" />
      <path
         id="p2EfCeeUm"
         d="m 1127,3100 c -3,-11 -2,-20 3,-20 4,0 10,9 13,20 3,11 2,20 -3,20 -4,0 -10,-9 -13,-20 z" />
      <path
         id="pipq0oJaK"
         d="m 998,3053 c -28,-81 -31,-96 -19,-89 6,4 11,16 11,28 0,11 7,35 16,54 9,18 14,38 12,44 -2,7 -11,-10 -20,-37 z" />
      <path
         id="pUfReRR3D"
         d="m 1099,3023 c -5,-14 -8,-30 -6,-36 1,-5 8,7 14,27 13,42 7,49 -8,9 z" />
      <path
         id="pD9BgzuNo"
         d="m 3871,3034 c -2,-16 30,-117 35,-112 2,3 -4,31 -15,64 -10,32 -19,54 -20,48 z" />
      <path
         id="p851nLpda"
         d="m 1077,2953 c -4,-3 -7,-16 -6,-27 0,-19 1,-19 10,3 10,24 8,36 -4,24 z" />
      <path
         id="pfZs7jmeZ"
         d="m 1187,2926 c -5,-15 -6,-31 -3,-34 8,-8 18,25 14,45 -3,13 -6,10 -11,-11 z" />
      <path
         id="pO3G2geX"
         d="m 3790,2925 c 0,-5 7,-32 15,-60 l 15,-50 -6,45 c -6,40 -23,90 -24,65 z" />
      <path
         id="pLtTl72Ar"
         d="m 947,2876 c -5,-21 -6,-40 -3,-43 9,-10 18,24 14,54 -3,26 -4,25 -11,-11 z" />
      <path
         id="phJwpmNZv"
         d="m 3916,2860 c 5,-45 18,-70 36,-70 6,0 4,7 -3,16 -8,9 -20,35 -26,58 l -13,41 z" />
      <path
         id="pwnQeeA2s"
         d="m 1630,2875 c 0,-8 7,-15 15,-15 8,0 15,-4 15,-10 0,-5 7,-10 15,-10 8,0 15,5 15,10 0,6 3,9 8,9 24,-4 42,3 42,16 0,12 -13,15 -55,15 -42,0 -55,-3 -55,-15 z" />
      <path
         id="px6drIvuW"
         d="m 1162,2829 c -14,-61 -15,-76 -3,-63 8,9 25,114 18,114 -2,0 -9,-23 -15,-51 z" />
      <path
         id="p1HSpWlTw2"
         d="m 1041,2813 c -11,-40 -15,-90 -6,-81 7,7 24,112 20,116 -2,2 -8,-13 -14,-35 z" />
      <path
         id="pjrJBSdZF"
         d="m 3550,2811 c 0,-5 -16,-15 -35,-22 -26,-10 -35,-19 -35,-36 0,-20 3,-21 26,-12 15,5 29,7 32,5 6,-6 32,20 32,32 0,5 9,12 20,15 11,3 20,11 20,17 0,9 -4,9 -17,-1 -13,-11 -17,-11 -20,-1 -5,14 -23,16 -23,3 z" />
      <path
         id="pUwzOK9u4"
         d="m 3827,2730 c 3,-47 10,-89 15,-95 7,-7 8,13 3,57 -11,107 -25,136 -18,38 z" />
      <path
         id="p6knn4HKC"
         d="m 922,2703 c -1,-17 -5,-38 -8,-47 -5,-12 0,-16 20,-16 14,0 26,5 26,10 0,6 -6,10 -14,10 -10,0 -16,13 -19,38 -3,34 -4,35 -5,5 z" />
      <path
         id="p57wHqc8R"
         d="m 3947,2723 c -21,-36 117,-119 211,-127 29,-3 52,-1 52,3 0,9 -234,131 -250,131 -5,0 -11,-3 -13,-7 z" />
      <path
         id="pyo2rMJmB"
         d="m 4100,2724 c 0,-7 52,-25 57,-20 2,2 -10,8 -26,14 -17,6 -31,9 -31,6 z" />
      <path
         id="p1EYBD9qHU"
         d="m 3196,2615 c -22,-19 -37,-37 -34,-41 3,-3 14,3 24,14 11,10 27,22 37,25 9,4 17,13 17,22 0,20 1,20 -44,-20 z" />
      <path
         id="p12Clqu3iv"
         d="m 4300,2631 c 0,-8 52,-22 58,-16 2,1 -11,7 -27,13 -17,6 -31,7 -31,3 z" />
      <path
         id="pzYsChcA2"
         d="m 4370,2604 c 0,-3 14,-10 30,-15 36,-13 38,-26 8,-39 -18,-7 -10,-9 35,-9 31,-1 57,1 57,4 0,5 -68,41 -105,55 -14,5 -25,7 -25,4 z" />
      <path
         id="p5n609LbY"
         d="m 3376,2559 c -19,-19 -19,-19 17,-19 30,0 37,4 37,20 0,26 -29,25 -54,-1 z" />
      <path
         id="plnMnkCHl"
         d="m 640,2540 -275,-5 58,-27 c 32,-16 61,-28 65,-28 12,0 -32,27 -63,38 -23,8 46,11 276,11 l 305,1 11,-37 10,-38 2,48 1,47 -57,-2 c -32,-1 -182,-5 -333,-8 z" />
      <path
         id="pCzDYiZhd"
         d="m 652,2482 c -17,-12 8,-33 80,-67 37,-17 66,-24 79,-20 16,5 22,2 26,-15 4,-16 11,-20 26,-16 12,3 26,1 33,-5 22,-18 32,13 20,71 l -11,55 -120,3 c -66,1 -126,-2 -133,-6 z m 228,-52 c 0,-5 -9,-10 -19,-10 -11,0 -23,5 -26,10 -4,6 5,10 19,10 14,0 26,-4 26,-10 z" />
      <path
         id="p5sw4Nxdg"
         d="m 541,2455 c 3,-2 56,-27 119,-55 63,-27 104,-41 90,-30 -14,11 -30,20 -35,20 -6,0 -43,16 -84,35 -64,31 -104,44 -90,30 z" />
      <path
         id="p1HU3Sspm7"
         d="m 3846,2422 c -2,-4 13,-6 35,-4 21,2 39,6 39,8 0,7 -69,4 -74,-4 z" />
      <path
         id="p13T4EyxT0"
         d="m 1031,2344 c 0,-16 4,-38 9,-49 6,-13 7,-5 3,25 -7,53 -13,66 -12,24 z" />
      <path
         id="p6n86v3M1"
         d="m 3828,2341 c -11,-49 -10,-67 3,-54 6,6 9,28 7,49 l -3,39 z" />
      <path
         id="pJfaAq1WV"
         d="m 850,2315 c 33,-19 49,-19 24,0 -10,8 -26,14 -34,14 -9,0 -4,-6 10,-14 z" />
      <path
         id="pf1b4uqrA"
         d="m 3926,2293 c -2,-10 -7,-40 -10,-68 -5,-47 -5,-46 9,14 8,35 13,66 11,68 -2,3 -7,-4 -10,-14 z" />
      <path
         id="p32aDesuL"
         d="m 918,2279 c 11,-11 25,-47 32,-81 6,-33 13,-58 16,-55 8,7 -17,111 -32,135 -8,12 -19,22 -25,22 -5,0 -1,-9 9,-21 z" />
      <path
         id="pVkykIfaw"
         d="m 1061,2200 c -1,-29 38,-148 68,-211 12,-24 21,-47 21,-51 0,-16 110,-196 152,-249 82,-104 177,-203 186,-194 3,3 -29,40 -71,82 -132,135 -192,224 -270,398 -20,44 -47,118 -61,165 -14,47 -25,74 -25,60 z" />
      <path
         id="pXT3srxEK"
         d="m 3769,2104 c -20,-63 -33,-112 -29,-109 5,3 11,19 15,35 4,16 11,32 16,35 5,4 9,15 9,27 0,11 7,35 16,53 8,19 14,42 12,53 -2,10 -19,-32 -39,-94 z" />
      <path
         id="p3wSwjfdj"
         d="m 3897,2163 c -2,-4 -7,-26 -10,-48 l -6,-40 14,44 c 13,40 14,65 2,44 z" />
      <path
         id="ptoXNuCiT"
         d="m 972,2115 c 0,-5 6,-26 13,-45 7,-19 14,-28 14,-20 0,8 -6,29 -14,45 -7,17 -13,26 -13,20 z" />
      <path
         id="pO5RfFu1V"
         d="m 3859,2033 c -5,-14 -8,-30 -6,-36 1,-5 8,7 14,27 13,42 7,49 -8,9 z" />
      <path
         id="p10Kl4Nmwt"
         d="m 3717,1968 c -3,-7 -13,-31 -22,-53 l -16,-40 20,25 c 11,13 22,36 24,50 6,28 2,38 -6,18 z" />
      <path
         id="prbXVNEkV"
         d="m 3827,1953 c -7,-39 -1,-40 11,-4 6,17 7,31 3,31 -5,0 -11,-12 -14,-27 z" />
      <path
         id="pIyPQ4urY"
         d="m 1054,1898 c 23,-54 66,-128 66,-117 0,10 -81,169 -85,169 -3,0 6,-24 19,-52 z" />
      <path
         id="pKB2UpNWd"
         d="m 3624,1788 c -4,-7 -14,-24 -22,-38 -14,-24 -13,-24 3,-5 20,24 37,55 31,55 -3,0 -8,-6 -12,-12 z" />
      <path
         id="p1FVEk0Gc1"
         d="m 1136,1745 c 9,-14 18,-25 20,-25 2,0 -2,11 -8,25 -6,14 -15,25 -20,25 -5,0 -1,-11 8,-25 z" />
      <path
         id="p16Uyt7lL7"
         d="m 3692,1703 c -12,-20 -21,-37 -19,-40 3,-2 15,12 27,32 29,47 22,53 -8,8 z" />
      <path
         id="pakwiRDQ7"
         d="m 3532,1664 c -24,-30 -38,-54 -32,-54 5,0 10,3 10,8 0,4 16,25 35,46 29,33 44,58 33,55 -2,0 -22,-25 -46,-55 z" />
      <path
         id="pqldQsGXT"
         d="m 1169,1693 c 6,-12 34,-50 62,-85 40,-50 49,-68 44,-88 -4,-19 -3,-21 5,-10 17,26 12,38 -51,118 -72,90 -75,94 -60,65 z" />
      <path
         id="p1DQYO31e0"
         d="m 3635,1623 -17,-28 23,22 c 12,12 20,25 17,28 -3,3 -13,-7 -23,-22 z" />
      <path
         id="p428gzHqp"
         d="m 3330,1458 c -67,-60 -149,-113 -268,-173 -59,-30 -101,-54 -94,-55 41,-1 344,183 401,244 38,41 11,29 -39,-16 z" />
      <path
         id="p15z7meXFn"
         d="m 1251,1459 c -13,-39 -14,-46 -2,-33 9,10 24,64 17,64 -2,0 -9,-14 -15,-31 z" />
      <path
         id="pJ8HfFLEk"
         d="m 1311,1468 c 1,-13 -1,-30 -5,-39 -9,-21 24,-31 41,-14 7,7 18,15 25,18 9,3 6,12 -11,31 -30,32 -51,34 -50,4 z" />
      <path
         id="p1BumbInN8"
         d="m 3501,1460 c -19,-17 -21,-21 -7,-26 9,-3 16,-13 16,-21 0,-10 7,-14 20,-10 11,3 20,0 20,-6 0,-7 5,-4 11,6 8,13 7,27 -1,48 -14,34 -26,36 -59,9 z" />
      <path
         id="pe30C7Anc"
         d="m 1560,1427 c 0,-6 106,-77 115,-77 5,0 -17,18 -49,40 -54,38 -66,45 -66,37 z" />
      <path
         id="p1Fj0gyJ1k"
         d="m 1385,1384 c -30,-14 -30,-14 13,-7 34,4 49,2 70,-14 35,-25 52,-35 52,-30 0,7 -88,67 -97,66 -4,0 -21,-7 -38,-15 z" />
      <path
         id="pjjFv90AM"
         d="m 1220,1378 c 0,-7 -3,-24 -7,-38 -9,-36 6,-19 17,19 5,19 5,31 -1,31 -5,0 -9,-6 -9,-12 z" />
      <path
         id="pu7jC0dX3"
         d="m 3505,1365 c 50,-21 83,-26 40,-6 -22,11 -47,19 -55,19 -8,0 -1,-5 15,-13 z" />
      <path
         id="pbz2DRAXB"
         d="m 1240,1330 c -11,-8 -7,-9 15,-4 37,8 45,14 19,14 -10,0 -26,-5 -34,-10 z" />
      <path
         id="pIxUNKyaz"
         d="m 3268,1282 c -123,-81 -127,-84 -88,-66 47,22 166,99 174,113 10,16 10,15 -86,-47 z" />
      <path
         id="p1CBSdBujV"
         d="m 3600,1331 c 8,-5 25,-12 38,-15 17,-6 22,-3 22,11 0,12 -3,14 -8,6 -5,-8 -13,-9 -22,-3 -8,6 -22,10 -30,10 -13,-1 -13,-2 0,-9 z" />
      <path
         id="p1DPc5MMd1"
         d="m 1725,1317 c 23,-16 55,-28 55,-22 0,6 -56,35 -67,35 -4,0 1,-6 12,-13 z" />
      <path
         id="pRiMgRl46"
         d="m 1530,1316 c 0,-3 24,-18 53,-36 45,-27 43,-23 -8,18 -13,10 -45,23 -45,18 z" />
      <path
         id="pD8U5jq04"
         d="m 1655,1234 c 34,-27 216,-111 299,-139 112,-38 242,-65 306,-63 49,1 46,2 -28,9 -46,5 -92,14 -102,19 -10,6 -29,10 -42,10 -29,0 -150,39 -233,75 -16,7 -45,18 -63,25 -18,7 -58,28 -89,46 -58,36 -82,44 -48,18 z" />
      <path
         id="pS7oZA8Tb"
         d="m 1891,1237 c 11,-13 79,-37 79,-28 0,5 -10,11 -22,14 -13,2 -32,8 -43,12 -11,5 -18,5 -14,2 z" />
      <path
         id="p12F1aqIRN"
         d="m 2905,1215 -30,-14 30,6 c 17,3 34,10 40,14 14,13 -5,10 -40,-6 z" />
      <path
         id="pWPmc4YEn"
         d="m 2025,1186 c 17,-8 32,-12 34,-10 7,6 -2,11 -34,17 l -30,6 z" />
      <path
         id="p7904uyHP"
         d="m 2120,1162 c 8,-5 38,-12 65,-16 61,-7 31,8 -35,18 -29,4 -40,4 -30,-2 z" />
      <path
         id="pkAGWcj42"
         d="m 3016,1145 c -25,-19 -9,-19 24,0 14,8 19,14 10,14 -8,0 -24,-6 -34,-14 z" />
      <path
         id="p12v3yW6Hy"
         d="m 2290,1126 c 0,-9 6,-16 14,-16 8,0 17,-8 20,-17 2,-10 4,-5 3,12 -2,32 -37,51 -37,21 z" />
      <path
         id="p12SrT01kT"
         d="m 2480,1130 -45,-7 40,-1 c 22,0 49,3 60,8 23,10 9,10 -55,0 z" />
      <path
         id="p17sadkQG1"
         d="m 2885,1100 c -44,-16 -106,-33 -138,-40 -51,-10 -59,-15 -71,-44 -26,-62 -27,-81 -1,-34 13,26 30,50 36,53 6,4 52,17 102,30 87,22 199,64 167,63 -8,0 -51,-13 -95,-28 z" />
      <path
         id="pYuqjnAtU"
         d="m 2560,970 c 0,-20 -5,-30 -15,-30 -11,0 -15,-11 -15,-40 0,-22 4,-40 9,-40 7,0 71,119 71,134 0,3 -11,6 -25,6 -21,0 -25,-5 -25,-30 z" />
      <path
         id="p1EO93MNY"
         d="m 2627,908 c -9,-31 -2,-33 11,-3 6,14 8,25 3,25 -5,0 -11,-10 -14,-22 z" />
      <path
         id="pd9xW2Rd4"
         d="m 2596,844 c -10,-38 0,-41 12,-5 6,17 7,31 3,31 -5,0 -12,-12 -15,-26 z" />
      <path
         id="pkgWgrEd4"
         d="m 2490,789 v -32 l 20,26 c 11,14 20,28 20,31 0,3 -9,6 -20,6 -16,0 -20,-7 -20,-31 z" />
      <path
         id="pJ0EDkEow"
         d="m 2547,731 c -9,-16 -17,-35 -17,-43 1,-7 10,4 21,25 24,46 21,59 -4,18 z" />
      <path
         id="pnodwdZJu"
         d="m 2431,513 c 0,-24 1,-43 4,-43 2,0 14,19 25,43 13,25 15,34 5,23 -8,-11 -16,-25 -16,-30 -1,-6 -5,3 -9,19 -7,28 -8,27 -9,-12 z" />
    </g>
  </g>
  <g
     id="l399cmR1NPSRzG14ooWfVHd"
     fill="#727892">
    <g
       id="g376">
      <path
         id="pX0JWBWOk"
         d="m 2362,4475 c -17,-37 -14,-45 4,-12 9,16 14,31 11,33 -2,2 -9,-7 -15,-21 z" />
      <path
         id="pA5bLl6Dx"
         d="m 2282,4295 c -17,-37 -14,-45 4,-12 9,16 14,31 11,33 -2,2 -9,-7 -15,-21 z" />
      <path
         id="pkle8iPbL"
         d="m 2338,4258 c -42,-80 -88,-179 -88,-193 0,-14 6,-16 33,-11 17,4 47,10 65,13 l 32,6 v 103 c 0,85 -3,104 -15,104 -8,0 -20,-10 -27,-22 z" />
      <path
         id="pDNL4arE5"
         d="m 2207,4130 c -24,-55 -43,-83 -59,-89 -21,-9 -21,-10 -3,-10 14,-1 29,14 48,44 15,25 27,48 27,51 0,3 7,21 16,40 9,19 15,37 12,39 -3,3 -21,-31 -41,-75 z" />
      <path
         id="p19iVD1p9v"
         d="m 2568,4053 c 12,-2 32,-2 45,0 12,2 2,4 -23,4 -25,0 -35,-2 -22,-4 z" />
      <path
         id="prMfC0Zr8"
         d="m 2695,4035 c 28,-7 59,-13 70,-13 11,0 -2,6 -30,13 -27,7 -59,13 -70,13 -11,0 3,-6 30,-13 z" />
      <path
         id="p1DFLmRUxS"
         d="m 2845,4000 c 11,-5 27,-9 35,-9 9,0 8,4 -5,9 -11,5 -27,9 -35,9 -9,0 -8,-4 5,-9 z" />
      <path
         id="p1BZfowZpI"
         d="m 2544,3970 c 1,-22 6,-25 36,-26 34,-1 34,-1 3,3 -23,3 -33,10 -36,26 -3,18 -4,18 -3,-3 z" />
      <path
         id="p1Fj6IFCeL"
         d="m 2381,3959 c -24,-5 -46,-11 -49,-14 -6,-6 90,6 97,11 10,9 -7,10 -48,3 z" />
      <path
         id="puu0aNdQJ"
         d="m 2210,3940 c -16,-6 -1,-7 40,-3 36,3 67,7 69,9 8,8 -84,2 -109,-6 z" />
      <path
         id="p19ZLggGCk"
         d="m 2710,3920 c 14,-4 34,-8 45,-8 l 20,-1 -20,9 c -11,5 -31,8 -45,8 h -25 z" />
      <path
         id="ptE1vsYXM"
         d="m 1995,3888 c -49,-16 -94,-34 -99,-38 -5,-5 40,7 100,26 136,44 133,42 109,42 -11,1 -60,-13 -110,-30 z" />
      <path
         id="p1AGAIO07w"
         d="m 2890,3877 c 0,-3 21,-12 48,-21 40,-13 44,-13 28,-1 -11,8 -25,15 -32,15 -7,0 -19,3 -28,6 -9,3 -16,4 -16,1 z" />
      <path
         id="pFSg1X9rJ"
         d="m 3020,3825 c 0,-2 18,-14 40,-25 22,-11 40,-18 40,-15 0,2 -18,14 -40,25 -22,11 -40,18 -40,15 z" />
      <path
         id="pjgDHWeCY"
         d="m 1555,3784 -30,-26 33,22 c 17,12 32,23 32,26 0,7 -4,5 -35,-22 z" />
      <path
         id="pSJIiknT8"
         d="m 3111,3776 c 13,-12 109,-65 105,-57 -7,10 -91,61 -102,61 -4,0 -5,-2 -3,-4 z" />
      <path
         id="p12myzHFUY"
         d="m 3320,3775 c 0,-2 24,-22 54,-45 45,-33 60,-39 86,-34 45,9 45,20 -1,16 -32,-3 -48,2 -89,32 -27,20 -50,34 -50,31 z" />
      <path
         id="pV1drovlD"
         d="m 1485,3735 c -19,-16 -43,-25 -65,-25 -26,0 -31,-3 -20,-10 25,-16 43,-11 85,25 46,39 46,47 0,10 z" />
      <path
         id="phKMfsTtL"
         d="m 1657,3725 c -20,-14 -37,-28 -37,-31 0,-2 18,8 40,22 35,23 47,34 37,34 -1,0 -19,-11 -40,-25 z" />
      <path
         id="pYTOPStxk"
         d="m 1520,3622 c -47,-38 -103,-91 -124,-118 -31,-38 -20,-30 50,36 49,47 107,100 129,118 22,17 38,31 35,32 -3,0 -43,-31 -90,-68 z" />
      <path
         id="pav7yBYkx"
         d="m 3397,3554 c 77,-76 154,-157 172,-179 l 31,-40 -22,40 c -25,44 -233,257 -287,295 -18,13 29,-39 106,-116 z" />
      <path
         id="phEIoenMB"
         d="m 1300,3663 c 0,-6 5,-15 10,-18 6,-3 10,-15 10,-26 0,-19 29,-28 31,-9 5,38 2,45 -15,42 -10,-2 -23,2 -27,10 -6,9 -9,9 -9,1 z" />
      <path
         id="pD0EglKUe"
         d="m 3513,3663 c -28,-5 -29,-24 -5,-46 22,-20 42,-22 42,-4 0,6 3,22 6,35 7,23 3,24 -43,15 z" />
      <path
         id="pJdI9DWb8"
         d="m 3596,3600 c -21,-54 -21,-59 15,-100 30,-34 30,-34 10,-3 -23,34 -26,68 -11,109 6,15 9,29 7,31 -3,2 -12,-14 -21,-37 z" />
      <path
         id="p4FhylkQc"
         d="m 1271,3560 c -1,-14 -13,-43 -28,-65 -18,-28 -20,-35 -7,-23 32,28 52,71 43,93 -7,18 -8,18 -8,-5 z" />
      <path
         id="plj0zDQO4"
         d="m 1304,3395 c -20,-25 -35,-47 -33,-49 2,-2 21,19 42,45 47,62 41,64 -9,4 z" />
      <path
         id="p1G3yAaAjq"
         d="m 2045,3370 c 11,-5 27,-9 35,-9 9,0 8,4 -5,9 -11,5 -27,9 -35,9 -9,0 -8,-4 5,-9 z" />
      <path
         id="pQXXTkoRO"
         d="m 3609,3316 c 6,-7 36,-60 66,-117 30,-57 55,-99 55,-94 0,23 -113,225 -126,225 -4,0 -1,-6 5,-14 z" />
      <path
         id="pLxuKY5kv"
         d="m 1100,3280 c -11,-22 -18,-40 -15,-40 2,0 14,18 25,40 11,22 18,40 15,40 -2,0 -14,-18 -25,-40 z" />
      <path
         id="pIg3SACbW"
         d="m 2146,3278 c 44,-33 53,-36 19,-6 -16,15 -34,28 -39,28 -5,0 4,-10 20,-22 z" />
      <path
         id="pAnlfJg3p"
         d="m 2210,3237 c 0,-2 21,-18 48,-36 35,-25 40,-26 17,-6 -30,26 -65,49 -65,42 z" />
      <path
         id="pOv6q89Sf"
         d="m 1052,3185 c -17,-37 -14,-45 4,-12 9,16 14,31 11,33 -2,2 -9,-7 -15,-21 z" />
      <path
         id="pDXzlJrAG"
         d="m 2330,3156 c 0,-2 14,-14 30,-26 17,-12 30,-19 30,-16 0,2 -13,14 -30,26 -16,12 -30,19 -30,16 z" />
      <path
         id="p9B3bA0m2"
         d="m 1130,3099 c -6,-11 -10,-25 -7,-32 2,-6 9,3 15,21 12,36 8,42 -8,11 z" />
      <path
         id="pav0H2PHc"
         d="m 3742,3059 c 6,-16 12,-28 14,-26 5,5 -13,57 -20,57 -3,0 0,-14 6,-31 z" />
      <path
         id="p7cyUFFgl"
         d="m 2544,2998 c 20,-18 50,-49 67,-68 l 30,-35 -27,42 c -24,39 -83,93 -100,93 -4,0 9,-15 30,-32 z" />
      <path
         id="pIMJm6AN9"
         d="m 1216,3002 c -3,-5 8,-6 25,-4 16,2 29,6 29,8 0,8 -49,4 -54,-4 z" />
      <path
         id="p1867WtcbU"
         d="m 1192,2943 c -15,-48 -8,-55 8,-8 7,20 10,38 8,41 -3,2 -10,-13 -16,-33 z" />
      <path
         id="prbcRtU2O"
         d="m 1071,2929 c -6,-18 -11,-39 -10,-48 1,-9 7,4 15,28 16,51 12,68 -5,20 z" />
      <path
         id="prLgI7uWR"
         d="m 3796,2893 c 9,-38 14,-42 14,-10 0,14 -5,29 -10,32 -7,4 -8,-3 -4,-22 z" />
      <path
         id="pXYiouoFz"
         d="m 3681,2890 c 0,-8 4,-24 9,-35 5,-13 9,-14 9,-5 0,8 -4,24 -9,35 -5,13 -9,14 -9,5 z" />
      <path
         id="p1HVo044mb"
         d="m 3921,2847 c -1,-24 17,-57 31,-57 7,0 5,7 -4,18 -9,9 -18,26 -21,37 -4,17 -5,18 -6,2 z" />
      <path
         id="p9oHxaZGC"
         d="m 1156,2804 c -4,-20 -5,-38 -3,-40 3,-3 8,11 11,32 4,20 5,38 3,40 -3,3 -8,-11 -11,-32 z" />
      <path
         id="pjROPluv7"
         d="m 1035,2760 c -4,-34 -5,-63 -2,-66 2,-3 7,23 11,57 4,33 5,63 3,66 -3,2 -8,-23 -12,-57 z" />
      <path
         id="p46q8Leom"
         d="m 3826,2740 c 3,-36 9,-96 12,-135 l 7,-70 155,-3 c 85,-1 234,1 330,6 154,6 172,9 151,21 -13,7 -21,8 -17,2 5,-8 -80,-11 -302,-11 h -309 l -7,100 c -4,55 -11,112 -16,127 -6,19 -7,7 -4,-37 z" />
      <path
         id="p18mftBHF5"
         d="m 3970,2784 c 0,-7 71,-36 76,-31 2,2 -14,11 -36,20 -22,8 -40,13 -40,11 z" />
      <path
         id="phgz2AnIw"
         d="m 922,2730 c 0,-19 2,-27 5,-17 2,9 2,25 0,35 -3,9 -5,1 -5,-18 z" />
      <path
         id="pY8jXnraj"
         d="m 1142,2700 c 0,-19 2,-27 5,-17 2,9 2,25 0,35 -3,9 -5,1 -5,-18 z" />
      <path
         id="pEi1rBasK"
         d="m 3950,2671 c 0,-70 1,-71 111,-71 75,0 97,3 93,13 -5,13 -171,97 -191,97 -8,0 -13,-15 -13,-39 z" />
      <path
         id="pXpDSPKsd"
         d="m 968,2662 c -32,-2 -58,-7 -58,-12 0,-14 107,-13 115,1 9,14 8,14 -57,11 z" />
      <path
         id="p1vTIyjSR"
         d="m 4410,2585 c 14,-8 30,-14 35,-14 6,0 -1,6 -15,14 -14,8 -29,14 -35,14 -5,0 1,-6 15,-14 z" />
      <path
         id="pS1XEkG1L"
         d="m 995,2541 c 16,-7 21,-20 26,-77 l 5,-69 2,78 2,77 -27,-1 c -24,0 -25,-1 -8,-8 z" />
      <path
         id="pHp1ufwZF"
         d="m 376,2531 c 5,-6 27,-17 49,-26 35,-14 38,-14 21,0 -11,8 -26,15 -33,15 -7,0 -13,5 -13,10 0,6 -8,10 -17,10 -11,0 -13,-3 -7,-9 z" />
      <path
         id="p182r0s1Cf"
         d="m 3090,2476 c 0,-23 4,-26 35,-26 53,0 46,13 -27,48 -5,2 -8,-8 -8,-22 z" />
      <path
         id="pMz0cbQWg"
         d="m 700,2455 c 7,-8 18,-15 24,-15 6,0 47,-18 91,-40 102,-50 109,-51 101,-2 -3,20 -6,45 -6,55 0,15 -12,17 -111,17 -98,0 -110,-2 -99,-15 z" />
      <path
         id="p13hRzoaLg"
         d="m 570,2440 c 19,-11 40,-19 45,-19 6,0 -6,8 -25,19 -19,11 -39,19 -45,19 -5,0 6,-8 25,-19 z" />
      <path
         id="pmYwmYauL"
         d="m 3943,2380 c 0,-30 2,-43 4,-27 2,15 2,39 0,55 -2,15 -4,2 -4,-28 z" />
      <path
         id="pjzeJZ1Jo"
         d="m 770,2350 c 19,-11 40,-19 45,-19 6,0 -6,8 -25,19 -19,11 -39,19 -45,19 -5,0 6,-8 25,-19 z" />
      <path
         id="p14OGDteuf"
         d="m 1042,2285 c 0,-16 6,-46 13,-65 17,-45 18,-29 0,40 -9,39 -13,46 -13,25 z" />
      <path
         id="paHIZBs7d"
         d="m 1510,2290 c 0,-16 7,-20 35,-20 39,0 43,6 18,26 -27,20 -53,17 -53,-6 z" />
      <path
         id="p1F6I5qwrB"
         d="m 1600,2260 c 0,-16 7,-20 35,-20 39,0 43,6 18,26 -27,20 -53,17 -53,-6 z" />
      <path
         id="pxsVpjIxR"
         d="m 1690,2230 c 0,-16 7,-20 35,-20 39,0 43,6 18,26 -27,20 -53,17 -53,-6 z" />
      <path
         id="pF6te3hHp"
         d="m 1780,2200 c 0,-16 7,-20 35,-20 39,0 43,6 18,26 -27,20 -53,17 -53,-6 z" />
      <path
         id="p18cyiOsVW"
         d="m 1070,2157 c 0,-14 5,-29 10,-32 7,-4 8,3 4,22 -9,38 -14,42 -14,10 z" />
      <path
         id="pS9l6ZQ6w"
         d="m 1096,2080 c 3,-19 10,-39 15,-44 13,-14 10,2 -7,44 l -14,35 z" />
      <path
         id="p13nhYL5sT"
         d="m 1130,1996 c 0,-11 58,-136 64,-136 3,0 -8,30 -25,67 -30,67 -39,83 -39,69 z" />
      <path
         id="pvCeObJ9G"
         d="m 3717,1968 c -3,-7 -12,-30 -21,-50 -9,-21 -14,-38 -12,-38 7,0 47,92 42,97 -2,2 -6,-2 -9,-9 z" />
      <path
         id="p9Kxg6EcD"
         d="m 1050,1906 c 0,-11 40,-86 45,-86 3,0 -4,19 -16,43 -23,45 -29,54 -29,43 z" />
      <path
         id="p35GkZNPA"
         d="m 3570,1712 c -50,-67 -50,-77 0,-14 23,29 41,54 39,56 -2,2 -20,-17 -39,-42 z" />
      <path
         id="pJMUZhxEX"
         d="m 1175,1683 c 11,-18 36,-52 57,-75 30,-33 27,-27 -13,27 -61,82 -69,91 -44,48 z" />
      <path
         id="pXmOIkVvO"
         d="m 1311,1680 c 14,-29 255,-270 270,-270 5,0 -17,25 -50,56 -62,57 -172,169 -211,214 l -21,25 z" />
      <path
         id="pkFWM95zy"
         d="m 3415,1537 c -55,-56 -82,-88 -60,-70 60,47 186,180 163,172 -2,0 -48,-46 -103,-102 z" />
      <path
         id="pitvIlRUd"
         d="m 3616,1595 c -32,-39 -36,-49 -30,-80 9,-51 22,-52 17,-2 -4,35 0,49 26,85 41,55 33,54 -13,-3 z" />
      <path
         id="p5SFVFwTD"
         d="m 1315,1450 c -19,-36 -19,-40 0,-40 27,0 53,22 48,41 -8,31 -32,30 -48,-1 z" />
      <path
         id="p1HOegkOPp"
         d="m 3501,1453 c -7,-13 -3,-20 16,-30 35,-18 45,-16 41,8 -4,29 -44,44 -57,22 z" />
      <path
         id="pK07XmVAo"
         d="m 1225,1390 c -4,-12 -5,-24 -2,-27 3,-2 8,5 12,17 4,12 5,24 2,27 -3,2 -8,-5 -12,-17 z" />
      <path
         id="p7GIrPdKH"
         d="m 1411,1391 c -9,-6 -4,-10 18,-13 24,-4 28,-2 20,9 -13,15 -19,16 -38,4 z" />
      <path
         id="pMcwBksLn"
         d="m 1640,1369 c 52,-34 140,-82 140,-74 0,2 -19,14 -42,26 -24,12 -62,35 -85,50 -23,16 -45,29 -50,29 -4,0 12,-14 37,-31 z" />
      <path
         id="p513qQ8FQ"
         d="m 3380,1359 c -25,-22 -66,-53 -92,-70 -27,-17 -48,-33 -48,-36 0,-10 103,61 151,104 l 36,33 43,-15 c 24,-8 45,-13 48,-10 3,2 -4,7 -14,10 -10,4 -27,11 -36,16 -28,15 -41,10 -88,-32 z" />
      <path
         id="p15Gt832zC"
         d="m 1310,1355 c -72,-32 -51,-32 26,0 32,13 52,24 44,24 -8,0 -40,-11 -70,-24 z" />
      <path
         id="pd5TL8YOV"
         d="m 1517,1327 c 53,-42 68,-50 28,-14 -22,20 -44,36 -48,37 -5,0 4,-10 20,-23 z" />
      <path
         id="pGINSvUEA"
         d="m 3128,1319 c -41,-21 -49,-30 -20,-23 16,5 73,44 62,43 -3,0 -22,-9 -42,-20 z" />
      <path
         id="pgVU9o09p"
         d="m 1802,1275 c 9,-10 21,-16 28,-13 7,2 -1,10 -16,17 -27,12 -28,11 -12,-4 z" />
      <path
         id="pSOKMFxNg"
         d="m 3015,1261 c -33,-16 -56,-30 -52,-30 10,-1 117,49 117,55 0,6 -1,6 -65,-25 z" />
      <path
         id="ph7jwtzoC"
         d="m 1950,1210 c 8,-5 22,-10 30,-10 13,0 13,1 0,10 -8,5 -22,10 -30,10 -13,0 -13,-1 0,-10 z" />
      <path
         id="pwjt1T8d6"
         d="m 2040,1180 c 8,-5 26,-9 40,-9 l 25,1 -25,8 c -14,4 -32,8 -40,9 -13,1 -13,0 0,-9 z" />
      <path
         id="pj07ItH1V"
         d="m 2155,1155 c 28,-7 64,-13 80,-13 17,0 1,6 -35,13 -82,17 -111,17 -45,0 z" />
      <path
         id="pOaCZPQKY"
         d="m 2660,1154 -65,-13 65,5 c 35,3 71,10 80,14 20,12 5,11 -80,-6 z" />
      <path
         id="pikYPjtN3"
         d="m 2302,1134 c 9,-3 19,-13 22,-22 3,-12 4,-12 3,3 -1,12 -10,21 -22,22 -15,1 -15,0 -3,-3 z" />
      <path
         id="p1CVt4cEMu"
         d="m 2538,1133 c 12,-2 30,-2 40,0 9,3 -1,5 -23,4 -22,0 -30,-2 -17,-4 z" />
      <path
         id="pFvmpg0Tp"
         d="m 2430,798 c 0,-182 2,-329 6,-326 3,3 5,150 4,326 0,299 1,321 17,325 14,4 13,5 -4,6 l -23,1 z" />
      <path
         id="pNLXvJEuw"
         d="m 2860,1085 c -19,-7 -28,-13 -20,-13 8,0 31,6 50,13 19,7 28,13 20,13 -8,0 -31,-6 -50,-13 z" />
      <path
         id="pTakKf6cR"
         d="m 2035,1070 c 11,-5 27,-9 35,-9 9,0 8,4 -5,9 -11,5 -27,9 -35,9 -9,0 -8,-4 5,-9 z" />
      <path
         id="p1DoDOUx3h"
         d="m 2755,1060 c -14,-7 -8,-8 20,-3 22,3 42,7 44,9 9,8 -45,2 -64,-6 z" />
      <path
         id="pVZumqrVU"
         d="m 2165,1041 c 31,-9 102,-14 94,-7 -2,2 -31,6 -64,9 -39,4 -50,3 -30,-2 z" />
      <path
         id="pvAhE7vtj"
         d="m 2692,1038 c -13,-17 -43,-90 -39,-95 2,-2 12,15 22,38 10,22 28,47 39,55 16,11 17,14 4,14 -8,0 -20,-6 -26,-12 z" />
      <path
         id="p15VDjHLcP"
         d="m 2590,1030 c -8,-5 -34,-10 -57,-10 h -43 V 905 c 0,-93 3,-115 14,-115 14,0 46,52 46,73 0,6 17,43 37,84 36,72 37,104 3,83 z" />
      <path
         id="pxuZR8Rj"
         d="m 2547,725 c -24,-50 -20,-58 4,-12 11,22 19,41 17,43 -3,2 -12,-12 -21,-31 z" />
      <path
         id="p7QCOapwP"
         d="m 2474,564 c -8,-20 -13,-38 -11,-40 2,-2 11,14 20,36 19,50 12,53 -9,4 z" />
    </g>
  </g>
  <g
     id="l5WE0zUJ4dJY34hf4vN7LHw"
     fill="#f1a33f">
    <g
       id="g397">
      <path
         id="p6Y5WxxC1"
         d="m 3667,2720 c -16,-22 -44,-47 -63,-55 -35,-14 -46,-35 -19,-35 32,0 6,-271 -35,-365 -5,-11 -21,-51 -35,-89 -15,-38 -35,-81 -45,-95 -9,-14 -34,-52 -54,-83 -69,-108 -193,-228 -321,-308 -57,-36 -181,-95 -240,-113 -259,-81 -517,-59 -769,66 -195,96 -382,287 -483,492 -40,80 -48,114 -28,121 34,13 11,33 -68,58 -45,15 -89,31 -97,36 -8,5 -72,66 -142,137 l -128,128 v -110 c 0,-139 12,-213 56,-345 151,-452 474,-757 934,-882 110,-30 421,-37 540,-13 311,63 570,220 778,470 56,67 91,123 138,220 79,163 108,251 128,386 24,158 18,419 -8,419 -6,0 -24,-18 -39,-40 z" />
    </g>
  </g>
  <g
     id="l0FYjXSj3DlORamADkt6SW"
     fill="#f3b753">
    <g
       id="g434">
      <path
         id="pes3BXljE"
         d="m 2728,2713 c -9,-10 -82,-76 -164,-148 -81,-71 -193,-171 -249,-220 -55,-50 -133,-119 -174,-155 l -74,-64 -244,83 c -195,66 -252,82 -279,76 -19,-3 -34,-8 -34,-11 0,-2 9,-32 21,-66 48,-142 131,-271 253,-394 135,-134 243,-201 428,-264 105,-36 106,-37 243,-49 65,-7 132,-6 190,0 50,6 101,12 115,13 14,2 32,5 40,8 8,3 42,13 75,23 65,18 186,74 250,115 128,80 252,200 321,308 20,31 45,69 54,83 10,14 30,57 45,95 14,38 30,78 35,89 10,22 26,93 41,170 5,28 10,100 11,161 l 3,112 -50,-23 c -27,-13 -72,-33 -100,-45 -27,-12 -95,-43 -150,-69 -55,-26 -116,-54 -135,-63 l -35,-15 -175,87 c -159,81 -178,92 -205,134 -16,25 -32,46 -35,46 -3,0 -13,-8 -22,-17 z" />
    </g>
  </g>
  <g
     id="l1X0KQKrmpOOZ5RNTIZTK5d"
     fill="#c8c9d4">
    <g
       id="g473">
      <path
         id="p18htGlmcy"
         d="m 1987,4183 c -12,-19 6,-94 25,-104 26,-14 31,6 15,60 -12,43 -29,61 -40,44 z" />
      <path
         id="p7iJeh0as"
         d="m 2850,4165 c -13,-34 -13,-85 1,-85 13,0 41,67 37,88 -5,26 -27,25 -38,-3 z" />
      <path
         id="p1D3oMHbYm"
         d="m 1576,4012 c -5,-9 27,-78 45,-96 6,-6 14,-5 21,2 10,10 7,22 -12,57 -23,43 -42,55 -54,37 z" />
      <path
         id="pQ7tPV59S"
         d="m 3258,4003 c -25,-29 -40,-64 -34,-79 9,-24 25,-16 46,26 31,60 23,93 -12,53 z" />
      <path
         id="pei9Rwyns"
         d="m 2308,3943 c 12,-2 30,-2 40,0 9,3 -1,5 -23,4 -22,0 -30,-2 -17,-4 z" />
      <path
         id="p10ECuT4S9"
         d="m 1400,3706 c 0,-10 28,-13 41,-5 10,6 7,9 -13,9 -16,0 -28,-2 -28,-4 z" />
      <path
         id="pvVhtdv4G"
         d="m 3424,3701 c 3,-5 15,-7 26,-4 28,7 25,13 -6,13 -14,0 -23,-4 -20,-9 z" />
      <path
         id="pALclPN6t"
         d="m 3425,3530 c 44,-44 82,-80 85,-80 2,0 -31,36 -75,80 -44,44 -82,80 -85,80 -2,0 31,-36 75,-80 z" />
      <path
         id="pXOYWDHfd"
         d="m 1439,3543 -34,-38 38,34 c 34,33 42,41 34,41 -2,0 -19,-17 -38,-37 z" />
      <path
         id="pYv04gUdj"
         d="m 960,3383 c 0,-10 16,-26 36,-35 66,-33 85,-18 33,26 -36,30 -69,34 -69,9 z" />
      <path
         id="pRPHTz1Rf"
         d="m 3843,3377 c -46,-22 -47,-25 -34,-45 11,-18 100,26 101,51 0,22 -15,21 -67,-6 z" />
      <path
         id="padmCo7od"
         d="m 2205,3329 c 17,-5 39,-11 50,-13 11,-3 72,-20 135,-39 63,-19 129,-38 147,-42 18,-3 70,-30 116,-59 46,-29 90,-56 98,-59 8,-4 32,-18 54,-32 38,-23 47,-24 214,-25 h 173 l 38,-30 c 21,-16 43,-30 49,-30 6,0 11,-4 11,-10 0,-5 26,-26 57,-46 32,-20 62,-42 68,-49 5,-7 17,-15 25,-18 10,-3 -16,-35 -87,-103 -56,-55 -116,-116 -134,-137 l -33,-39 40,17 c 21,9 50,21 64,26 13,6 65,30 115,54 49,24 107,50 128,59 20,8 37,19 38,23 0,4 2,22 3,38 2,17 6,53 10,80 l 8,50 -84,49 c -45,27 -107,65 -137,83 l -53,35 38,39 38,39 h -199 -198 l -123,40 c -96,31 -161,45 -291,60 -92,12 -214,27 -271,35 -114,17 -152,18 -107,4 z" />
      <path
         id="pOQn9pjDb"
         d="m 4010,2986 c -40,-15 -54,-46 -20,-46 33,0 92,28 88,42 -6,18 -27,19 -68,4 z" />
      <path
         id="pio65bLLX"
         d="m 790,2977 c 0,-13 60,-37 94,-37 28,0 17,28 -15,39 -43,15 -79,14 -79,-2 z" />
      <path
         id="p1BLYYZZcw"
         d="m 1395,2954 c 116,-100 92,-90 222,-92 65,-1 121,-6 127,-12 6,-6 -3,-23 -25,-48 -19,-21 -44,-51 -57,-68 l -22,-29 102,-31 c 57,-17 125,-38 153,-46 48,-14 51,-16 112,-118 36,-62 60,-113 58,-125 -15,-80 -16,-115 -2,-115 8,0 21,8 28,17 8,9 70,66 139,127 374,331 450,400 449,415 0,11 -3,9 -9,-6 -13,-31 -426,-273 -466,-273 -14,0 -26,16 -44,57 l -25,57 -145,50 c -96,34 -146,56 -148,67 -2,9 28,41 75,80 59,49 73,65 58,66 -11,2 -128,7 -260,12 -164,7 -256,15 -290,25 -65,20 -65,20 -30,-10 z" />
      <path
         id="pt0FzIjhP"
         d="m 3832,2670 c 0,-19 2,-27 5,-17 2,9 2,25 0,35 -3,9 -5,1 -5,-18 z" />
      <path
         id="pBvOZKeWa"
         d="m 910,2648 c 0,-5 24,-8 54,-8 30,0 57,3 59,8 3,4 -21,7 -54,7 -32,0 -59,-3 -59,-7 z" />
      <path
         id="pu9s1MzQZ"
         d="m 3844,2555 c 1,-19 8,-20 206,-20 l 205,-1 -202,3 c -181,3 -202,5 -206,21 -3,13 -4,12 -3,-3 z" />
      <path
         id="pkvcYCG1g"
         d="m 960,2543 c 30,-3 58,-10 62,-16 5,-8 8,-6 8,6 0,15 -9,17 -62,15 l -63,-2 z" />
      <path
         id="p1bLMOZQA"
         d="m 820,2131 c -14,-4 -26,-15 -28,-24 -6,-33 94,-13 106,21 4,13 -35,15 -78,3 z" />
      <path
         id="pWDXLCtTq"
         d="m 3970,2127 c 0,-21 10,-26 64,-33 38,-6 46,-4 46,9 0,21 -10,26 -64,33 -38,6 -46,4 -46,-9 z" />
      <path
         id="pFX1DnNvB"
         d="m 997,1735 c -35,-24 -50,-55 -26,-55 25,0 89,45 89,62 0,25 -19,23 -63,-7 z" />
      <path
         id="p1GFYRxtYJ"
         d="m 3807,1753 c -4,-3 -7,-10 -7,-14 0,-10 82,-59 98,-59 25,0 10,30 -25,55 -38,26 -55,30 -66,18 z" />
      <path
         id="pCVwyvYaK"
         d="m 1400,1588 c 41,-45 50,-53 50,-45 0,2 -21,23 -47,47 l -48,45 z" />
      <path
         id="pBpMgCkv5"
         d="m 1460,1527 c 0,-2 15,-16 33,-33 l 32,-29 -29,33 c -28,30 -36,37 -36,29 z" />
      <path
         id="pGD1nInKY"
         d="m 1601,1134 c -22,-37 -28,-74 -11,-74 13,0 60,75 60,95 0,27 -28,16 -49,-21 z" />
      <path
         id="pP47lRWBI"
         d="m 3220,1160 c 0,-13 43,-100 49,-100 4,0 12,4 20,9 12,7 9,17 -13,55 -24,41 -56,62 -56,36 z" />
      <path
         id="pAGPAtuXH"
         d="m 2323,1080 c 0,-30 2,-43 4,-27 2,15 2,39 0,55 -2,15 -4,2 -4,-28 z" />
      <path
         id="pB5zSWar7"
         d="m 2695,1030 c -26,-28 -15,-31 12,-3 12,13 19,23 14,23 -4,0 -16,-9 -26,-20 z" />
      <path
         id="p10AnSjTKR"
         d="m 1991,966 c -14,-58 -14,-66 4,-66 16,0 28,23 40,78 6,28 4,32 -13,32 -15,0 -22,-11 -31,-44 z" />
      <path
         id="p4Mt4XK4m"
         d="m 2835,1001 c -3,-6 0,-30 6,-55 9,-36 16,-46 31,-46 17,0 20,5 15,28 -14,67 -36,98 -52,73 z" />
    </g>
  </g>
  <text
     xml:space="preserve"
     id="text1777"
     style="font-weight:bold;font-size:16px;font-family:'Helvetica Neue';-inkscape-font-specification:'Helvetica Neue Bold';white-space:pre;shape-inside:url(#rect1779);display:inline;fill:#ffffff" />
  <text
     xml:space="preserve"
     id="text1783"
     style="font-weight:bold;font-size:16px;font-family:'Helvetica Neue';-inkscape-font-specification:'Helvetica Neue Bold';white-space:pre;shape-inside:url(#rect1785);display:inline;fill:#ffffff" />
  <text
     xml:space="preserve"
     id="text1795"
     style="font-weight:bold;font-size:16px;font-family:'Helvetica Neue';-inkscape-font-specification:'Helvetica Neue Bold';white-space:pre;shape-inside:url(#rect1797);display:inline;fill:#ffffff" />
  <text
     xml:space="preserve"
     id="text2572"
     style="font-weight:bold;font-size:400px;font-family:'Helvetica Neue';-inkscape-font-specification:'Helvetica Neue Bold';white-space:pre;shape-inside:url(#rect2574);display:inline;fill:#1a1a1a;fill-opacity:0.00392157" />
  <text
     xml:space="preserve"
     id="text2630"
     style="font-weight:bold;font-size:533.333px;line-height:0;font-family:'Helvetica Neue';-inkscape-font-specification:'Helvetica Neue Bold';white-space:pre;shape-inside:url(#rect2632);display:inline;fill:#1a1a1a;fill-opacity:0.00392157" />
  <g
     aria-label="aero alpes"
     id="text3471"
     style="font-weight:bold;font-size:1333.33px;font-family:'Helvetica Neue';-inkscape-font-specification:'Helvetica Neue Bold';fill:#008080">
    <path
       d="m 5266.9139,1875.8661 q 103.9997,0 187.9995,49.3332 85.3331,47.9999 133.333,133.333 49.3332,85.3331 49.3332,189.3329 v 313.3325 q 0,21.3333 -14.6666,35.9999 -14.6666,14.6667 -37.3332,14.6667 -22.6667,0 -37.3333,-13.3333 -14.6666,-14.6667 -14.6666,-37.3333 v -79.9998 q -46.6666,63.9999 -118.6664,101.3331 -71.9998,35.9999 -158.6662,35.9999 -101.3331,0 -183.9996,-47.9999 -81.3331,-49.3332 -129.333,-133.333 -46.6665,-85.3331 -46.6665,-189.3328 0,-103.9998 47.9998,-189.3329 49.3333,-85.3331 133.333,-133.333 85.3332,-49.3332 189.3329,-49.3332 z m 0,649.3317 q 75.9998,0 137.333,-35.9999 61.3332,-35.9999 95.9997,-98.6664 35.9999,-63.9999 35.9999,-142.6663 0,-78.6665 -35.9999,-141.333 -34.6665,-63.9998 -95.9997,-99.9997 -61.3332,-37.3333 -137.333,-37.3333 -75.9998,0 -138.6663,37.3333 -61.3332,35.9999 -97.3331,99.9997 -34.6666,62.6665 -34.6666,141.333 0,78.6664 34.6666,142.6663 35.9999,62.6665 97.3331,98.6664 62.6665,35.9999 138.6663,35.9999 z"
       style="font-weight:normal;font-family:Comfortaa;-inkscape-font-specification:Comfortaa;fill:#0e1845"
       id="path1493" />
    <path
       d="m 6148.2425,1875.8661 q 98.6665,0 174.6663,46.6666 75.9998,45.3332 117.333,126.6663 42.6666,81.3331 42.6666,185.3329 0,21.3333 -13.3333,34.6666 -13.3333,11.9999 -34.6666,11.9999 h -538.6653 q 10.6666,109.3331 85.3331,177.3329 74.6665,67.9998 186.6662,67.9998 47.9999,0 95.9997,-15.9999 49.3333,-17.3333 78.6665,-42.6666 17.3333,-13.3333 35.9999,-13.3333 14.6667,0 29.3333,10.6667 17.3333,15.9999 17.3333,35.9999 0,17.3333 -14.6667,30.6666 -43.9998,37.3332 -111.9997,62.6665 -67.9998,23.9999 -130.6663,23.9999 -106.6664,0 -190.6662,-46.6665 -83.9998,-47.9999 -131.9997,-131.9997 -46.6665,-85.3331 -46.6665,-191.9995 0,-107.9997 43.9999,-191.9995 45.3332,-85.3332 123.9997,-131.9997 79.9998,-47.9999 181.3328,-47.9999 z m 0,91.9998 q -101.333,0 -167.9995,62.6665 -66.6665,62.6665 -81.3332,165.3329 h 487.9988 q -10.6666,-102.6664 -74.6665,-165.3329 -63.9998,-62.6665 -163.9996,-62.6665 z"
       style="font-weight:normal;font-family:Comfortaa;-inkscape-font-specification:Comfortaa;fill:#0e1845"
       id="path1495" />
    <path
       d="m 6985.5717,1874.5328 q 55.9999,0 87.9998,14.6666 33.3332,14.6667 33.3332,41.3333 0,7.9999 -1.3333,11.9999 -5.3333,18.6666 -17.3333,25.3333 -10.6666,6.6666 -30.6666,6.6666 -12,0 -41.3332,-2.6666 -10.6667,-1.3334 -31.9999,-1.3334 -99.9998,0 -163.9996,53.3332 -62.6665,53.3332 -62.6665,138.6664 v 398.6656 q 0,24 -13.3333,37.3333 -13.3333,13.3333 -37.3333,13.3333 -23.9999,0 -37.3332,-13.3333 -13.3333,-13.3333 -13.3333,-37.3333 v -627.9984 q 0,-23.9999 13.3333,-37.3332 13.3333,-13.3333 37.3332,-13.3333 24,0 37.3333,13.3333 13.3333,13.3333 13.3333,37.3332 v 58.6665 q 38.6665,-55.9998 98.6664,-86.6664 59.9998,-30.6666 129.333,-30.6666 z"
       style="font-weight:normal;font-family:Comfortaa;-inkscape-font-specification:Comfortaa;fill:#0e1845"
       id="path1497" />
    <path
       d="m 7529.5679,2618.5309 q -105.333,0 -190.6661,-47.9999 -83.9998,-47.9998 -131.9997,-131.9996 -47.9999,-85.3332 -47.9999,-190.6662 0,-105.3331 47.9999,-190.6662 47.9999,-85.3331 131.9997,-133.333 85.3331,-47.9999 190.6661,-47.9999 105.3331,0 189.3329,47.9999 83.9998,47.9999 131.9997,133.333 49.3332,85.3331 49.3332,190.6662 0,105.333 -47.9999,190.6662 -47.9999,83.9998 -133.333,131.9996 -83.9998,47.9999 -189.3329,47.9999 z m 0,-93.3331 q 77.3332,0 138.6664,-35.9999 61.3331,-35.9999 95.9997,-98.6664 34.6666,-63.9999 34.6666,-142.6663 0,-79.9998 -34.6666,-142.6663 -34.6666,-63.9999 -95.9997,-99.9998 -61.3332,-35.9999 -138.6664,-35.9999 -75.9998,0 -138.6663,35.9999 -61.3331,35.9999 -97.3331,99.9998 -34.6665,62.6665 -34.6665,142.6663 0,78.6664 34.6665,142.6663 36,62.6665 97.3331,98.6664 62.6665,35.9999 138.6663,35.9999 z"
       style="font-weight:normal;font-family:Comfortaa;-inkscape-font-specification:Comfortaa;fill:#0e1845"
       id="path1499" />
    <path
       d="m 8822.8946,1875.8661 q 103.9997,0 187.9995,49.3332 85.3331,47.9999 133.333,133.333 49.3332,85.3331 49.3332,189.3329 v 313.3325 q 0,21.3333 -14.6666,35.9999 -14.6666,14.6667 -37.3332,14.6667 -22.6666,0 -37.3333,-13.3333 -14.6666,-14.6667 -14.6666,-37.3333 v -79.9998 q -46.6666,63.9999 -118.6664,101.3331 -71.9998,35.9999 -158.6662,35.9999 -101.3331,0 -183.9996,-47.9999 -81.3331,-49.3332 -129.333,-133.333 -46.6665,-85.3331 -46.6665,-189.3328 0,-103.9998 47.9999,-189.3329 49.3332,-85.3331 133.333,-133.333 85.3331,-49.3332 189.3328,-49.3332 z m 0,649.3317 q 75.9998,0 137.333,-35.9999 61.3332,-35.9999 95.9997,-98.6664 36,-63.9999 36,-142.6663 0,-78.6665 -36,-141.333 -34.6665,-63.9998 -95.9997,-99.9997 -61.3332,-37.3333 -137.333,-37.3333 -75.9998,0 -138.6663,37.3333 -61.3332,35.9999 -97.3331,99.9997 -34.6666,62.6665 -34.6666,141.333 0,78.6664 34.6666,142.6663 35.9999,62.6665 97.3331,98.6664 62.6665,35.9999 138.6663,35.9999 z"
       style="font-weight:normal;font-family:Comfortaa;-inkscape-font-specification:Comfortaa;fill:#0e1845"
       id="path1501" />
    <path
       d="m 9550.8902,2611.8643 q -81.3331,0 -133.3329,-63.9999 -50.6666,-65.3331 -50.6666,-166.6662 v -759.9981 q 0,-22.6666 14.6666,-35.9999 14.6667,-14.6666 36,-14.6666 22.6666,0 35.9999,14.6666 14.6666,13.3333 14.6666,35.9999 v 759.9981 q 0,57.3332 22.6666,93.3331 23.9999,35.9999 59.9998,35.9999 h 33.3333 q 19.9999,0 31.9999,14.6666 12,13.3333 12,35.9999 0,22.6666 -17.3333,37.3333 -16,13.3333 -42.6666,13.3333 z"
       style="font-weight:normal;font-family:Comfortaa;-inkscape-font-specification:Comfortaa;fill:#0e1845"
       id="path1503" />
    <path
       d="m 10140.222,1875.8661 q 103.999,0 187.999,49.3332 85.333,47.9999 133.333,133.333 49.333,85.3331 49.333,189.3329 0,103.9997 -48,189.3328 -46.666,83.9998 -129.333,133.333 -81.333,47.9999 -182.666,47.9999 -86.666,0 -158.666,-35.9999 -71.9999,-37.3332 -118.6664,-101.3331 v 390.6657 q 0,22.6666 -14.6666,37.3332 -14.6667,14.6667 -37.3333,14.6667 -22.6666,0 -37.3332,-14.6667 -13.3333,-14.6666 -13.3333,-37.3332 v -298.6659 q -1.3334,-4 -1.3334,-12 v -313.3325 q 0,-103.9998 47.9999,-189.3329 49.3332,-85.3331 133.333,-133.333 85.3333,-49.3332 189.3333,-49.3332 z m 0,649.3317 q 75.999,0 137.333,-35.9999 62.666,-35.9999 97.333,-98.6664 36,-63.9999 36,-142.6663 0,-78.6665 -36,-141.333 -34.667,-63.9998 -97.333,-99.9997 -61.334,-37.3333 -137.333,-37.3333 -76,0 -137.333,37.3333 -61.3336,35.9999 -97.3335,99.9997 -34.6666,62.6665 -34.6666,141.333 0,22.6666 1.3334,33.3332 1.3333,2.6667 1.3333,6.6667 13.3333,103.9997 86.6664,170.6662 74.667,66.6665 180,66.6665 z"
       style="font-weight:normal;font-family:Comfortaa;-inkscape-font-specification:Comfortaa;fill:#0e1845"
       id="path1505" />
    <path
       d="m 11022.884,1875.8661 q 98.667,0 174.667,46.6666 75.999,45.3332 117.333,126.6663 42.666,81.3331 42.666,185.3329 0,21.3333 -13.333,34.6666 -13.333,11.9999 -34.667,11.9999 h -538.665 q 10.667,109.3331 85.333,177.3329 74.667,67.9998 186.666,67.9998 48,0 96,-15.9999 49.333,-17.3333 78.666,-42.6666 17.334,-13.3333 36,-13.3333 14.667,0 29.334,10.6667 17.333,15.9999 17.333,35.9999 0,17.3333 -14.667,30.6666 -44,37.3332 -111.999,62.6665 -68,23.9999 -130.667,23.9999 -106.666,0 -190.666,-46.6665 -84,-47.9999 -132,-131.9997 -46.666,-85.3331 -46.666,-191.9995 0,-107.9997 44,-191.9995 45.333,-85.3332 123.999,-131.9997 80,-47.9999 181.333,-47.9999 z m 0,91.9998 q -101.333,0 -167.999,62.6665 -66.667,62.6665 -81.333,165.3329 h 487.998 q -10.666,-102.6664 -74.666,-165.3329 -64,-62.6665 -164,-62.6665 z"
       style="font-weight:normal;font-family:Comfortaa;-inkscape-font-specification:Comfortaa;fill:#0e1845"
       id="path1507" />
    <path
       d="m 11785.547,2618.5309 q -82.666,0 -158.666,-27.9999 -76,-28 -122.667,-78.6665 -13.333,-15.9999 -13.333,-30.6666 0,-22.6666 21.333,-39.9999 16,-11.9999 33.334,-11.9999 22.666,0 38.666,18.6666 32,37.3332 84,57.3332 53.333,19.9999 117.333,19.9999 93.333,0 140,-31.9999 46.666,-31.9999 48,-83.9998 0,-47.9999 -46.667,-79.9998 -46.667,-31.9999 -148,-47.9999 -130.666,-21.3333 -195.999,-73.3331 -64,-53.3332 -64,-127.9997 0,-97.3331 74.667,-150.6663 75.999,-53.3332 189.332,-53.3332 88,0 153.333,30.6666 65.334,29.3333 105.333,82.6665 10.667,17.3333 10.667,30.6666 0,22.6666 -21.333,35.9999 -9.334,6.6666 -25.333,6.6666 -28,0 -46.667,-19.9999 -65.333,-74.6665 -178.666,-74.6665 -73.333,0 -117.333,30.6666 -44,29.3332 -44,74.6665 0,47.9998 41.333,77.3331 41.333,27.9999 146.666,45.3332 142.667,24 204,78.6665 61.333,53.3332 61.333,133.333 0,61.3332 -37.333,109.333 -36,47.9999 -101.333,74.6665 -65.333,26.6666 -148,26.6666 z"
       style="font-weight:normal;font-family:Comfortaa;-inkscape-font-specification:Comfortaa;fill:#0e1845"
       id="path1509" />
  </g>
  <g
     aria-label="HAZ TUS SUEOS VOLAR"
     id="text3471-7"
     style="font-weight:bold;font-size:466.667px;font-family:'Helvetica Neue';-inkscape-font-specification:'Helvetica Neue Bold';fill:#ff9e15">
    <path
       d="m 5240.1231,3362.6318 h -44.4336 v -157.2266 h -173.633 v 157.2266 h -44.2057 v -334.0497 h 44.2057 v 137.1746 h 173.633 v -137.1746 h 44.4336 z"
       style="font-weight:normal;font-family:'Arial Unicode MS';-inkscape-font-specification:'Arial Unicode MS'"
       id="path1512" />
    <path
       d="m 5589.2119,3362.6318 h -49.9024 l -39.1927,-101.6276 h -139.4532 l -36.9141,101.6276 h -46.7123 l 128.2878,-334.0497 h 47.6238 z M 5486.6728,3225.913 q -41.0157,-108.4636 -46.2566,-123.047 -5.2409,-14.8112 -11.6211,-39.4206 h -1.1393 q -6.3802,33.724 -17.0899,62.435 l -37.3698,100.0326 z"
       style="font-weight:normal;font-family:'Arial Unicode MS';-inkscape-font-specification:'Arial Unicode MS'"
       id="path1514" />
    <path
       d="m 5861.2824,3362.6318 h -264.0952 v -41.4713 l 171.1264,-213.2814 q 0,-0.6836 12.0768,-14.8113 12.0768,-14.3554 22.5586,-24.8372 h -186.6212 v -39.6485 h 239.258 v 39.6485 l -187.5327,230.827 -20.0521,23.9258 h 213.2814 z"
       style="font-weight:normal;font-family:'Arial Unicode MS';-inkscape-font-specification:'Arial Unicode MS'"
       id="path1516" />
    <path
       d="m 6278.2748,3068.2306 h -110.5144 v 294.4012 h -44.4336 v -294.4012 h -109.6029 v -39.6485 h 264.5509 z"
       style="font-weight:normal;font-family:'Arial Unicode MS';-inkscape-font-specification:'Arial Unicode MS'"
       id="path1518" />
    <path
       d="m 6588.1709,3221.8114 q 0,25.7487 -2.9622,47.6238 -2.7344,21.875 -15.0391,45.1172 -12.0768,23.0143 -39.6484,38.5091 -27.3438,15.267 -73.1446,15.267 -44.6615,0 -72.0053,-13.6719 -27.3437,-13.6719 -40.1042,-35.3191 -12.7604,-21.6471 -16.4062,-45.1172 -3.418,-23.4701 -3.418,-52.4089 v -193.2293 h 44.2058 v 192.5457 q 0,30.0782 4.3294,51.9532 4.3294,21.6471 22.7865,38.5091 18.457,16.862 56.9661,16.862 38.9649,0 58.5613,-13.444 19.5964,-13.444 25.5208,-35.7748 5.9245,-22.5586 5.9245,-58.1055 v -192.5457 h 44.4336 z"
       style="font-weight:normal;font-family:'Arial Unicode MS';-inkscape-font-specification:'Arial Unicode MS'"
       id="path1520" />
    <path
       d="m 6859.7857,3126.564 q -2.7344,-31.9011 -23.0143,-47.8516 -20.28,-16.1784 -58.1055,-16.1784 -34.1797,0 -55.599,12.7604 -21.4193,12.7604 -21.4193,37.1419 0,21.6472 16.4063,32.3568 16.6341,10.4818 63.3464,20.9636 41.4713,9.1146 67.6758,18.6849 26.2044,9.5703 44.8893,29.8503 18.6849,20.0521 18.6849,54.0039 0,43.0665 -34.4075,71.5496 -34.1797,28.4831 -89.323,28.4831 -70.4102,0 -105.5014,-31.4454 -34.8633,-31.4453 -36.9141,-81.5756 l 41.9271,-3.6458 q 2.9623,40.1042 30.9896,58.5612 28.0274,18.2292 67.6759,18.2292 37.1419,0 59.9284,-15.2669 23.0143,-15.267 23.0143,-41.4714 0,-27.3438 -23.9258,-39.8763 -23.9258,-12.5326 -80.4362,-24.6094 -56.2826,-12.3047 -81.1199,-34.4076 -24.8372,-22.1029 -24.8372,-57.4219 0,-40.1042 31.4453,-66.3086 31.4454,-26.2045 85.6772,-26.2045 55.599,0 89.3229,26.2045 33.9519,25.9765 36.0027,74.056 z"
       style="font-weight:normal;font-family:'Arial Unicode MS';-inkscape-font-specification:'Arial Unicode MS'"
       id="path1522" />
    <path
       d="m 7300.7039,3126.564 q -2.7343,-31.9011 -23.0143,-47.8516 -20.28,-16.1784 -58.1055,-16.1784 -34.1797,0 -55.599,12.7604 -21.4193,12.7604 -21.4193,37.1419 0,21.6472 16.4063,32.3568 16.6341,10.4818 63.3464,20.9636 41.4714,9.1146 67.6758,18.6849 26.2044,9.5703 44.8894,29.8503 18.6849,20.0521 18.6849,54.0039 0,43.0665 -34.4076,71.5496 -34.1797,28.4831 -89.323,28.4831 -70.4102,0 -105.5014,-31.4454 -34.8633,-31.4453 -36.9141,-81.5756 l 41.9272,-3.6458 q 2.9622,40.1042 30.9896,58.5612 28.0273,18.2292 67.6758,18.2292 37.1419,0 59.9284,-15.2669 23.0144,-15.267 23.0144,-41.4714 0,-27.3438 -23.9258,-39.8763 -23.9258,-12.5326 -80.4363,-24.6094 -56.2826,-12.3047 -81.1198,-34.4076 -24.8373,-22.1029 -24.8373,-57.4219 0,-40.1042 31.4453,-66.3086 31.4454,-26.2045 85.6772,-26.2045 55.599,0 89.323,26.2045 33.9518,25.9765 36.0026,74.056 z"
       style="font-weight:normal;font-family:'Arial Unicode MS';-inkscape-font-specification:'Arial Unicode MS'"
       id="path1524" />
    <path
       d="m 7677.3645,3221.8114 q 0,25.7487 -2.9622,47.6238 -2.7344,21.875 -15.0391,45.1172 -12.0768,23.0143 -39.6484,38.5091 -27.3438,15.267 -73.1446,15.267 -44.6615,0 -72.0053,-13.6719 -27.3437,-13.6719 -40.1042,-35.3191 -12.7604,-21.6471 -16.4062,-45.1172 -3.418,-23.4701 -3.418,-52.4089 v -193.2293 h 44.2058 v 192.5457 q 0,30.0782 4.3294,51.9532 4.3294,21.6471 22.7865,38.5091 18.457,16.862 56.9662,16.862 38.9648,0 58.5612,-13.444 19.5964,-13.444 25.5208,-35.7748 5.9245,-22.5586 5.9245,-58.1055 v -192.5457 h 44.4336 z"
       style="font-weight:normal;font-family:'Arial Unicode MS';-inkscape-font-specification:'Arial Unicode MS'"
       id="path1526" />
    <path
       d="m 8001.1604,3362.6318 h -249.5119 v -334.0497 h 241.7645 v 39.6485 h -197.5588 v 102.0834 h 184.7983 v 39.6485 h -184.7983 v 113.0209 h 205.3062 z"
       style="font-weight:normal;font-family:'Arial Unicode MS';-inkscape-font-specification:'Arial Unicode MS'"
       id="path1528" />
    <path
       d="m 8325.6397,3362.6318 h -45.3451 l -174.5444,-262.2723 h -0.9114 v 262.2723 h -41.9272 v -334.0497 h 45.1173 l 174.5444,262.2723 h 0.9114 v -262.2723 h 42.155 z m -49.9024,-412.4351 q 0,25.5208 -13.2161,38.737 -12.9883,12.9882 -31.6732,12.9882 -10.4818,0 -17.5456,-2.2786 -7.0638,-2.5065 -16.862,-8.8867 -16.1784,-10.2539 -25.7487,-10.2539 -18.9128,0 -19.5964,21.4192 h -28.0274 q 0,-25.2929 13.6719,-38.5091 13.6719,-13.2161 32.5847,-13.2161 14.8112,0 31.901,10.7096 17.3178,10.7096 28.2553,10.7096 15.7226,0 18.2292,-21.4192 z"
       style="font-weight:normal;font-family:'Arial Unicode MS';-inkscape-font-specification:'Arial Unicode MS'"
       id="path1530" />
    <path
       d="m 8545.0735,3022.8855 q 70.1823,0 114.8438,47.6237 44.6615,47.6238 44.6615,125.5535 0,77.7019 -44.8894,125.0978 -44.8893,47.168 -114.6159,47.168 -72.2332,0 -116.2111,-48.991 -43.9779,-48.9909 -43.9779,-119.629 0,-82.2591 44.4337,-129.4271 44.6615,-47.3959 115.7553,-47.3959 z m -0.4558,307.6174 q 50.8139,0 82.2592,-35.5469 31.6732,-35.5469 31.9011,-98.8933 0,-65.1693 -32.3568,-100.2605 -32.129,-35.0911 -80.892,-35.0911 -50.1303,0 -82.4871,34.4075 -32.3568,34.4076 -32.3568,105.5014 0,58.1055 31.6732,94.1081 31.6732,35.7748 82.2592,35.7748 z"
       style="font-weight:normal;font-family:'Arial Unicode MS';-inkscape-font-specification:'Arial Unicode MS'"
       id="path1532" />
    <path
       d="m 8960.243,3126.564 q -2.7344,-31.9011 -23.0143,-47.8516 -20.28,-16.1784 -58.1055,-16.1784 -34.1798,0 -55.599,12.7604 -21.4193,12.7604 -21.4193,37.1419 0,21.6472 16.4062,32.3568 16.6342,10.4818 63.3464,20.9636 41.4714,9.1146 67.6759,18.6849 26.2044,9.5703 44.8893,29.8503 18.6849,20.0521 18.6849,54.0039 0,43.0665 -34.4076,71.5496 -34.1797,28.4831 -89.3229,28.4831 -70.4102,0 -105.5014,-31.4454 -34.8633,-31.4453 -36.9141,-81.5756 l 41.9271,-3.6458 q 2.9623,40.1042 30.9896,58.5612 28.0274,18.2292 67.6758,18.2292 37.142,0 59.9285,-15.2669 23.0143,-15.267 23.0143,-41.4714 0,-27.3438 -23.9258,-39.8763 -23.9258,-12.5326 -80.4362,-24.6094 -56.2826,-12.3047 -81.1199,-34.4076 -24.8372,-22.1029 -24.8372,-57.4219 0,-40.1042 31.4453,-66.3086 31.4453,-26.2045 85.6771,-26.2045 55.599,0 89.323,26.2045 33.9519,25.9765 36.0026,74.056 z"
       style="font-weight:normal;font-family:'Arial Unicode MS';-inkscape-font-specification:'Arial Unicode MS'"
       id="path1534" />
    <path
       d="m 9474.9896,3028.5821 -130.7943,334.0497 h -45.1172 l -129.4272,-334.0497 h 47.6237 l 86.8165,242.676 q 9.7982,23.2422 17.3177,54.4596 h 0.9115 q 6.8359,-26.6601 17.3177,-54.4596 l 90.4623,-242.676 z"
       style="font-weight:normal;font-family:'Arial Unicode MS';-inkscape-font-specification:'Arial Unicode MS'"
       id="path1536" />
    <path
       d="m 9660.2436,3022.8855 q 70.1824,0 114.8438,47.6237 44.6615,47.6238 44.6615,125.5535 0,77.7019 -44.8893,125.0978 -44.8894,47.168 -114.616,47.168 -72.2331,0 -116.211,-48.991 -43.9779,-48.9909 -43.9779,-119.629 0,-82.2591 44.4336,-129.4271 44.6615,-47.3959 115.7553,-47.3959 z m -0.4557,307.6174 q 50.8138,0 82.2592,-35.5469 31.6732,-35.5469 31.901,-98.8933 0,-65.1693 -32.3568,-100.2605 -32.1289,-35.0911 -80.892,-35.0911 -50.1302,0 -82.487,34.4075 -32.3568,34.4076 -32.3568,105.5014 0,58.1055 31.6732,94.1081 31.6732,35.7748 82.2592,35.7748 z"
       style="font-weight:normal;font-family:'Arial Unicode MS';-inkscape-font-specification:'Arial Unicode MS'"
       id="path1538" />
    <path
       d="m 10085.211,3362.6318 h -208.9519 v -334.0497 h 44.2058 v 294.4013 h 164.7461 z"
       style="font-weight:normal;font-family:'Arial Unicode MS';-inkscape-font-specification:'Arial Unicode MS'"
       id="path1540" />
    <path
       d="m 10412.425,3362.6318 h -49.902 l -39.193,-101.6276 h -139.453 l -36.914,101.6276 h -46.713 l 128.288,-334.0497 h 47.624 z m -102.539,-136.7188 q -41.016,-108.4636 -46.257,-123.047 -5.241,-14.8112 -11.621,-39.4206 h -1.139 q -6.38,33.724 -17.09,62.435 l -37.37,100.0326 z"
       style="font-weight:normal;font-family:'Arial Unicode MS';-inkscape-font-specification:'Arial Unicode MS'"
       id="path1542" />
    <path
       d="m 10743.74,3362.6318 h -55.599 q -49.902,-78.8412 -61.979,-96.8425 -12.077,-18.0013 -25.521,-30.7617 -13.216,-12.9883 -25.065,-16.4063 -11.621,-3.418 -30.989,-3.418 h -51.042 v 147.4285 h -44.206 v -334.0497 h 147.884 q 30.306,0 50.814,3.8737 20.508,3.8737 36.003,16.4063 15.495,12.3047 23.698,31.2175 8.431,18.9127 8.431,39.8763 0,37.8255 -23.926,60.8399 -23.926,23.0143 -69.727,29.1667 v 0.9114 q 33.496,14.8112 62.891,60.8399 z m -250.195,-187.0769 h 94.792 q 28.711,0 45.345,-4.7852 16.862,-5.013 26.888,-19.1406 10.026,-14.1276 10.026,-31.6732 0,-22.7865 -16.634,-38.737 -16.635,-15.9506 -54.916,-15.9506 h -105.501 z"
       style="font-weight:normal;font-family:'Arial Unicode MS';-inkscape-font-specification:'Arial Unicode MS'"
       id="path1544" />
  </g>
</svg>
